<svg width="7.001709" height="13.001465" viewBox="0 0 7.00171 13.0015" fill="none" xmlns="http://www.w3.org/2000/svg" xmlns:xlink="http://www.w3.org/1999/xlink">
	<desc>
			Created with Pixso.
	</desc>
	<defs/>
	<path id="Path" d="M0.146973 12.8545C0.0527344 12.7607 0 12.6333 0 12.5005C0 12.3677 0.0527344 12.2402 0.146973 12.1465L5.79395 6.50049L0.146973 0.854492C0.0205078 0.728027 -0.0290527 0.543945 0.017334 0.371094C0.0637207 0.198242 0.198486 0.0634766 0.371338 0.0170898C0.544189 -0.0292969 0.728516 0.0200195 0.85498 0.146484L6.85498 6.14648C6.94897 6.24023 7.00171 6.36768 7.00171 6.50049C7.00171 6.6333 6.94897 6.76074 6.85498 6.85449L0.85498 12.8545C0.760986 12.9487 0.633789 13.0015 0.500977 13.0015C0.368164 13.0015 0.240723 12.9487 0.146973 12.8545Z" fill="#052C65" fill-opacity="1.000000" fill-rule="evenodd"/>
</svg>
