<svg width="12.799988" height="16.000000" viewBox="0 0 12.8 16" fill="none" xmlns="http://www.w3.org/2000/svg" xmlns:xlink="http://www.w3.org/1999/xlink">
	<desc>
			Created with Pixso.
	</desc>
	<defs/>
	<path id="lock" d="M2.40002 4C2.40002 1.79443 4.1944 0 6.40002 0C8.60559 0 10.4 1.79443 10.4 4L10.4 6.40002L11.2 6.40002C12.0824 6.40002 12.8 7.11755 12.8 8L12.8 14.4C12.8 15.2823 12.0824 16 11.2 16L1.59998 16C0.71759 16 0 15.2823 0 14.4L0 8C0 7.11755 0.71759 6.40002 1.59998 6.40002L2.40002 6.40002L2.40002 4ZM4 4L4 6.40002L8.79999 6.40002L8.79999 4C8.79999 2.67676 7.72321 1.59998 6.40002 1.59998C5.07678 1.59998 4 2.67676 4 4ZM11.2 8L11.2016 14.4L1.59998 14.4L1.59998 8L11.2 8Z" clip-rule="evenodd" fill="#6C757D" fill-opacity="1.000000" fill-rule="evenodd"/>
</svg>
