<svg width="16.000000" height="16.000000" viewBox="0 0 16 16" fill="none" xmlns="http://www.w3.org/2000/svg" xmlns:xlink="http://www.w3.org/1999/xlink">
	<desc>
			Created with Pixso.
	</desc>
	<defs/>
	<path id="person" d="M8 8C9.06085 8 10.0783 7.57861 10.8284 6.82837C11.5786 6.07825 12 5.06091 12 4C12 2.93909 11.5786 1.92175 10.8284 1.17163C10.0783 0.421387 9.06085 0 8 0C6.93915 0 5.92169 0.421387 5.17157 1.17163C4.42145 1.92175 4 2.93909 4 4C4 5.06091 4.42145 6.07825 5.17157 6.82837C5.92169 7.57861 6.93915 8 8 8ZM10.6667 4C10.6667 4.70728 10.3857 5.3855 9.88562 5.88562C9.3855 6.38574 8.70721 6.66663 8 6.66663C7.29279 6.66663 6.6145 6.38574 6.11438 5.88562C5.61426 5.3855 5.33331 4.70728 5.33331 4C5.33331 3.29272 5.61426 2.6145 6.11438 2.11438C6.6145 1.61426 7.29279 1.33337 8 1.33337C8.70721 1.33337 9.3855 1.61426 9.88562 2.11438C10.3857 2.6145 10.6667 3.29272 10.6667 4ZM16 14.6666C16 16 14.6667 16 14.6667 16L1.33331 16C1.33331 16 0 16 0 14.6666C0 13.3334 1.33331 9.33337 8 9.33337C14.6667 9.33337 16 13.3334 16 14.6666ZM14.6667 14.6614C14.6653 14.3334 14.4613 13.3467 13.5573 12.4426C12.688 11.5734 11.052 10.6666 8 10.6666C4.94666 10.6666 3.31201 11.5734 2.44269 12.4426C1.5387 13.3467 1.336 14.3334 1.33331 14.6614L14.6667 14.6614Z" fill="#6C757D" fill-opacity="1.000000" fill-rule="nonzero"/>
</svg>
